<svg width="36" height="36" viewBox="0 0 36 36" fill="none" xmlns="http://www.w3.org/2000/svg">
<g id="Group 1261154181">
<g id="dypius_icon_purple_text_purple">
<g id="Group 1000010408">
<circle id="Ellipse 260" cx="18" cy="18" r="18" fill="url(#paint0_linear_1855_949)"/>
<g id="Group 1000010406">
<g id="Group 1000010398">
<path id="Vector" d="M6.87252 18.0665L14.0713 23.4171C14.0827 23.4171 14.0827 23.4285 14.0941 23.4285L16.7638 25.4052C16.9919 25.5756 17.3114 25.4165 17.3114 25.1325L17.3228 10.3983C17.3 10.1371 17.2657 9.86441 17.2087 9.60313C17.1516 9.3532 17.0718 9.11464 16.9577 8.91016C17.1516 10.3529 16.3302 12.0342 14.9384 13.1362C14.6304 13.3861 14.2082 13.6587 13.7405 13.8518C13.2385 14.0677 11.7212 14.5903 11.7212 14.5903L7.14633 16.2375C6.35914 16.5215 6.19942 17.5666 6.87252 18.0665Z" fill="white"/>
<path id="Vector_2" d="M14.0146 13.7272C14.026 13.7158 14.0488 13.7158 14.0602 13.7044C14.083 13.6931 14.1058 13.6817 14.1401 13.659C14.1743 13.6476 14.1971 13.6249 14.2313 13.6136C14.2427 13.6022 14.2655 13.5908 14.277 13.5908C14.3112 13.5681 14.3568 13.5454 14.391 13.5227C14.4025 13.5113 14.4139 13.5113 14.4253 13.5C14.4595 13.4772 14.4937 13.4545 14.5394 13.4318C14.5622 13.4204 14.5736 13.4091 14.5964 13.3977C14.6192 13.375 14.6534 13.3636 14.6763 13.3409C14.7105 13.3182 14.7447 13.2841 14.7903 13.2614C14.8018 13.2614 14.8018 13.25 14.8132 13.25C14.8588 13.2159 14.9044 13.1819 14.9501 13.1478C16.3419 12.0458 17.1633 10.3645 16.9694 8.92179C16.8895 8.78547 16.7868 8.66051 16.6728 8.56962L14.2998 6.82015C14.0716 6.64975 13.7408 6.80879 13.7408 7.0928V11.2166C13.7408 13.8067 11.7214 14.5905 11.7214 14.5905C11.7214 14.5905 13.2502 14.0793 13.7408 13.8635C13.832 13.818 13.9233 13.7726 14.0146 13.7272Z" fill="#F2EEFF"/>
</g>
<g id="Group 1000010399">
<path id="Vector_3" d="M28.9764 17.7838L21.773 12.4332C21.7616 12.4332 21.7616 12.4218 21.7502 12.4218L19.0788 10.4452C18.8505 10.2747 18.5309 10.4338 18.5309 10.7178V25.452C18.5537 25.7132 18.588 25.9859 18.645 26.2472C18.7021 26.4971 18.782 26.7357 18.8962 26.9401C18.7021 25.4974 19.5241 23.8161 20.9168 22.7141C21.225 22.4642 21.6474 22.1916 22.1155 21.9985C22.6063 21.7826 24.1361 21.2714 24.1361 21.2714L28.7138 19.6242C29.5015 19.3288 29.6499 18.2837 28.9764 17.7838Z" fill="white"/>
<path id="Vector_4" d="M21.8414 22.1241C21.8299 22.1355 21.8071 22.1355 21.7957 22.1468C21.7729 22.1582 21.75 22.1696 21.7158 22.1923C21.6815 22.2036 21.6587 22.2264 21.6245 22.2377C21.613 22.2491 21.5902 22.2604 21.5788 22.2604C21.5445 22.2832 21.4989 22.3059 21.4646 22.3286C21.4532 22.34 21.4418 22.34 21.4304 22.3513C21.3961 22.374 21.3619 22.3968 21.3162 22.4195C21.2934 22.4308 21.282 22.4422 21.2591 22.4536C21.2363 22.4763 21.2021 22.4876 21.1792 22.5104C21.145 22.5331 21.1107 22.5672 21.0651 22.5899C21.0537 22.5899 21.0537 22.6012 21.0422 22.6012C20.9966 22.6353 20.9509 22.6694 20.9053 22.7035C19.5125 23.8054 18.6906 25.4867 18.8846 26.9295C18.9646 27.0658 19.0673 27.1908 19.1815 27.2816L21.5445 29.0311C21.7729 29.2015 22.1039 29.0425 22.1039 28.7585V24.6347C22.1039 22.056 24.1245 21.2607 24.1245 21.2607C24.1245 21.2607 22.5948 21.7719 22.1039 21.9878C22.024 22.0332 21.9327 22.0787 21.8414 22.1241Z" fill="#F2EEFF"/>
</g>
</g>
</g>
</g>
</g>
<defs>
<linearGradient id="paint0_linear_1855_949" x1="18" y1="0" x2="18" y2="36" gradientUnits="userSpaceOnUse">
<stop stop-color="#7770E0"/>
<stop offset="1" stop-color="#554FD8"/>
</linearGradient>
</defs>
</svg>
