<svg width="36" height="36" viewBox="0 0 36 36" fill="none" xmlns="http://www.w3.org/2000/svg">
<g id="Group 1261157936">
<path id="Vector" d="M18 36C27.9411 36 36 27.9411 36 18C36 8.05887 27.9411 0 18 0C8.05888 0 0 8.05887 0 18C0 27.9411 8.05888 36 18 36Z" fill="url(#paint0_linear_1855_963)"/>
<path id="Vector_2" d="M27.8104 8.36029C26.8673 6.59051 25.4618 5.10971 23.7437 4.07564C22.0255 3.04158 20.059 2.49299 18.0536 2.48831C16.0483 2.48363 14.0792 3.02305 12.3562 4.04909C10.6332 5.07513 9.22085 6.54936 8.26956 8.31472C6.50131 9.25752 5.02341 10.6644 3.99471 12.3841C2.966 14.1038 2.42538 16.0713 2.43095 18.0752C2.4382 20.0984 2.99555 22.0816 4.04334 23.8125C5.09113 25.5433 6.5899 26.9566 8.37921 27.9011C9.34493 29.606 10.7461 31.0239 12.4395 32.0097C14.1329 32.9955 16.0577 33.5139 18.0172 33.5119C19.983 33.5147 21.914 32.9933 23.6111 32.0013C25.3082 31.0093 26.7101 29.5826 27.6722 27.8684C29.4385 26.9305 30.9181 25.5322 31.9543 23.8218C32.9905 22.1113 33.5446 20.1525 33.5581 18.1527C33.5715 16.1529 33.0437 14.1868 32.0305 12.4626C31.0174 10.7384 29.5567 9.3204 27.8033 8.35886L27.8104 8.36029ZM18.0001 28.5818C15.9067 28.5824 13.8602 27.9621 12.1194 26.7995C10.3786 25.6369 9.02163 23.9842 8.22015 22.0504C7.41866 20.1165 7.20867 17.9885 7.61672 15.9353C8.02476 13.8821 9.03252 11.996 10.5125 10.5156C11.9926 9.03515 13.8784 8.02688 15.9315 7.61828C17.9845 7.20968 20.1127 7.41911 22.0467 8.22007C23.9808 9.02103 25.6339 10.3775 26.7969 12.1181C27.96 13.8586 28.5808 15.9049 28.5808 17.9983C28.5812 20.8049 27.4667 23.4968 25.4825 25.4819C23.4982 27.4669 20.8068 28.5825 18.0001 28.5832V28.5818Z" fill="white"/>
</g>
<defs>
<linearGradient id="paint0_linear_1855_963" x1="0" y1="18" x2="36" y2="18" gradientUnits="userSpaceOnUse">
<stop stop-color="#487FC1"/>
<stop offset="1" stop-color="#1CC3F2"/>
</linearGradient>
</defs>
</svg>
