<svg width="48" height="48" viewBox="0 0 48 48" fill="none" xmlns="http://www.w3.org/2000/svg">
<g id="gift-surprise-svgrepo-com 1" clip-path="url(#clip0_1847_1634)">
<path id="Vector" d="M24 48C37.2548 48 48 37.2548 48 24C48 10.7452 37.2548 0 24 0C10.7452 0 0 10.7452 0 24C0 37.2548 10.7452 48 24 48Z" fill="#8CB1FF"/>
<path id="Vector_2" d="M36.2286 10.2861H11.7715C10.9715 10.2861 10.2858 10.9338 10.2858 11.7718V36.229C10.2858 37.029 10.9334 37.7147 11.7715 37.7147H36.2286C37.0286 37.7147 37.7143 37.0671 37.7143 36.229V11.7718C37.7143 10.9338 37.0667 10.2861 36.2286 10.2861Z" fill="#324A5E"/>
<path id="Vector_3" d="M31.0477 22.5528C30.5143 21.5623 29.4858 20.8766 28.2667 20.8766C27.8858 20.8766 27.4667 20.9528 27.0477 21.0671C27.0477 21.029 27.0477 20.9528 27.0477 20.9147C27.0477 19.7338 26.4001 18.7433 25.4477 18.1718V10.2861H22.5524V18.0576C21.4858 18.5528 20.762 19.6576 20.762 20.8766C20.762 20.9147 20.762 20.9528 20.762 20.9909C20.4191 20.9147 20.0762 20.8385 19.7334 20.8385C18.5143 20.8385 17.4858 21.5242 16.9524 22.5147H10.2858V25.4099H16.9524C17.4858 26.4004 18.5143 27.0861 19.7334 27.0861C20.0381 27.0861 20.381 27.048 20.762 26.9338C20.762 26.9718 20.762 27.0099 20.762 27.048C20.762 28.3052 21.4858 29.3718 22.5524 29.8671V37.7147H25.4477V29.8671C26.4001 29.3338 27.0477 28.3052 27.0477 27.1242C27.0477 27.0861 27.0477 27.0099 27.0477 26.9718C27.4667 27.0861 27.8858 27.1623 28.2667 27.1623C29.4858 27.1623 30.5143 26.4766 31.0477 25.4861H37.7143V22.5909H31.0477V22.5528ZM19.7334 25.1052C19.1239 25.1052 18.6286 24.6099 18.6286 24.0004C18.6286 23.3909 19.1239 22.8957 19.7334 22.8957C20.6477 22.8957 21.8286 23.6957 21.8286 24.0004C21.8286 24.3052 20.6477 25.1052 19.7334 25.1052ZM24.381 22.5528C24.1905 22.8195 24.0001 22.9718 23.8858 22.9718C23.7715 22.9718 23.581 22.8195 23.3905 22.5528C23.0858 22.1338 22.781 21.448 22.781 20.8766C22.781 20.2671 23.2762 19.7718 23.8858 19.7718C24.4953 19.7718 24.9905 20.2671 24.9905 20.8766C24.9905 21.448 24.6858 22.1338 24.381 22.5528ZM24.9905 27.1242C24.9905 27.7338 24.4953 28.229 23.8858 28.229C23.2762 28.229 22.781 27.7338 22.781 27.1242C22.781 26.5528 23.0858 25.8671 23.3905 25.448C23.581 25.1814 23.7715 25.029 23.8858 25.029C24.0001 25.029 24.1905 25.1814 24.381 25.448C24.6858 25.8671 24.9905 26.5528 24.9905 27.1242ZM28.2667 25.1052C27.3524 25.1052 26.1715 24.3052 26.1715 24.0004C26.1715 23.6957 27.3524 22.8957 28.2667 22.8957C28.8762 22.8957 29.3715 23.3909 29.3715 24.0004C29.3715 24.6099 28.8762 25.1052 28.2667 25.1052Z" fill="#FFD05B"/>
</g>
<defs>
<clipPath id="clip0_1847_1634">
<rect width="48" height="48" fill="white"/>
</clipPath>
</defs>
</svg>
