<svg width="15" height="24" viewBox="0 0 15 24" fill="none" xmlns="http://www.w3.org/2000/svg">
<g id="Group 1261158522">
<path id="Vector" d="M7.41314 22.2074C5.92306 22.2058 4.49445 21.6132 3.4408 20.5596C2.38715 19.5059 1.79453 18.0773 1.79297 16.5872C1.79297 16.5073 1.79297 16.4282 1.79886 16.3491V16.323C1.79886 16.2826 1.79886 16.2389 1.79886 16.201C1.80804 15.1465 2.11247 14.1157 2.67764 13.2254C3.2428 12.3351 4.0461 11.621 4.99644 11.164C4.94837 11.0716 4.91434 10.9726 4.89547 10.8703L4.74652 10.0566C4.69805 9.78264 4.76007 9.50065 4.91902 9.27233C4.97922 9.18614 5.05181 9.1093 5.13445 9.04429C5.11509 9.00054 5.09406 8.95342 5.07302 8.90377C4.9569 8.63871 4.82057 8.31895 4.72549 8.08586C4.66743 7.94702 4.62451 7.84352 4.61021 7.81238C4.35777 7.26375 4.14488 6.77149 3.9505 6.30784C3.52471 5.29218 3.0922 4.19659 2.81199 3.06902C2.73925 2.79303 2.68888 2.51163 2.66137 2.22755C2.64285 2.01986 2.66893 1.81061 2.73786 1.61383C2.80679 1.41704 2.91699 1.23725 3.06106 1.08652C3.97069 0.111255 6.24518 -0.0132815 7.52085 0.00102343C8.45152 0.0111211 9.44192 0.0405728 10.4197 0.278709C11.8637 0.631284 12.2844 1.36589 12.3829 1.92041C12.5099 2.6323 12.2407 3.30884 12.0034 3.90628C11.9402 4.06616 11.8797 4.21763 11.8292 4.36488C11.2553 6.0209 10.5417 7.62894 9.89379 9.01821C10.055 9.13351 10.1802 9.29225 10.2547 9.47594C10.3292 9.65963 10.3499 9.86071 10.3145 10.0557C10.3011 10.1273 10.2901 10.2114 10.2792 10.3006C10.2405 10.6052 10.195 10.9671 10.0074 11.254C10.59 11.5592 11.1149 11.9638 11.5582 12.4497C12.4956 13.4797 13.0257 14.8631 13.0493 16.3432C13.0718 17.3751 12.8244 18.395 12.3315 19.3018C11.8398 20.176 11.1262 20.905 10.2626 21.4152C9.39902 21.9254 8.41611 22.1986 7.41314 22.2074ZM5.71001 9.59125C5.6412 9.60562 5.58077 9.64641 5.54171 9.70485C5.4974 9.76729 5.47956 9.84472 5.49207 9.92026L5.64101 10.7331C5.65377 10.8029 5.69219 10.8653 5.74871 10.9081C5.76395 10.9198 5.78031 10.93 5.79752 10.9384L5.81351 10.9452C5.8843 10.9744 5.94458 11.0244 5.98637 11.0886C6.02816 11.1528 6.04952 11.2281 6.0476 11.3047C6.04569 11.3812 6.0206 11.4554 5.97565 11.5174C5.9307 11.5794 5.86801 11.6264 5.79584 11.652C4.85482 11.9873 4.03936 12.6033 3.45956 13.4168C2.87977 14.2303 2.56357 15.2021 2.55366 16.201C2.55366 16.2271 2.55366 16.2599 2.55366 16.2919V16.3365V16.3668C2.55366 16.44 2.54776 16.5132 2.54776 16.5872C2.54932 17.8765 3.06216 19.1124 3.97378 20.0241C4.88541 20.9357 6.12138 21.4485 7.41061 21.4501C8.27897 21.4429 9.13006 21.2067 9.87795 20.7654C10.6258 20.3241 11.244 19.6933 11.6701 18.9366C12.0991 18.1453 12.3137 17.2556 12.2928 16.3558C12.2726 15.0785 11.8006 13.8415 10.9986 12.9605C10.4836 12.3955 9.84276 11.9597 9.12806 11.6882C9.0505 11.659 8.98467 11.6051 8.94067 11.5349C8.89666 11.4646 8.87692 11.3819 8.88447 11.2994C8.89202 11.2168 8.92643 11.139 8.98244 11.078C9.03845 11.0169 9.11296 10.9758 9.19453 10.9612H9.20883C9.24401 10.9525 9.27716 10.9371 9.30645 10.9157C9.44697 10.8089 9.48905 10.4782 9.52271 10.2123C9.53533 10.113 9.54711 10.0187 9.56394 9.927C9.57401 9.87244 9.56791 9.81612 9.54638 9.76499C9.52485 9.71385 9.48883 9.67013 9.44276 9.63921L9.43014 9.63164C9.40042 9.61348 9.36763 9.60093 9.33338 9.59461H9.31066C9.25369 9.58427 9.19985 9.56096 9.15331 9.5265C9.10678 9.49204 9.0688 9.44734 9.04229 9.39586C9.01577 9.34439 9.00145 9.2875 9.00042 9.22961C8.99939 9.17171 9.01168 9.11435 9.03634 9.06196C9.71625 7.61295 10.4938 5.89383 11.1055 4.12843C11.1619 3.96519 11.2284 3.79942 11.2923 3.63785C11.5018 3.11025 11.7189 2.56498 11.6289 2.06515C11.5448 1.5813 11.0727 1.23125 10.2312 1.02593C9.33253 0.80715 8.39092 0.779382 7.50486 0.773492C5.56948 0.753296 4.11626 1.06969 3.60465 1.61496C3.53161 1.68804 3.47581 1.7765 3.44131 1.87389C3.40681 1.97128 3.39448 2.07514 3.40522 2.1779C3.43016 2.42106 3.47405 2.66189 3.53649 2.8982C3.78893 3.91554 4.15918 4.88407 4.63798 6.02594C4.82983 6.48286 5.04272 6.96755 5.28843 7.50945C5.30442 7.54395 5.3507 7.65503 5.41381 7.80481C5.53161 8.0867 5.83454 8.81457 5.92626 8.98287C5.96982 9.0337 5.99888 9.09532 6.01041 9.16126C6.01899 9.21022 6.01783 9.26039 6.00699 9.3089C5.99614 9.35741 5.97584 9.40331 5.94723 9.44395C5.91862 9.4846 5.88227 9.5192 5.84026 9.54578C5.79826 9.57236 5.75142 9.59038 5.70244 9.59882L5.71001 9.59125ZM5.64605 8.83898C5.62756 8.83775 5.60901 8.83775 5.59052 8.83898C5.6118 8.83733 5.63318 8.83733 5.65447 8.83898H5.64605Z" fill="#474747"/>
<path id="Vector_2" d="M11.1189 20.2937C13.1659 18.2468 13.1659 14.928 11.1189 12.8811C9.07199 10.8342 5.75325 10.8342 3.70631 12.8811C1.65937 14.928 1.65937 18.2468 3.70631 20.2937C5.75325 22.3406 9.07199 22.3407 11.1189 20.2937Z" fill="#C24402"/>
<path id="Vector_3" d="M11.1189 20.2937C13.1659 18.2468 13.1659 14.928 11.1189 12.8811C9.07199 10.8342 5.75325 10.8342 3.70631 12.8811C1.65937 14.928 1.65937 18.2468 3.70631 20.2937C5.75325 22.3406 9.07199 22.3407 11.1189 20.2937Z" fill="#991602"/>
<path id="Vector_4" d="M9.79524 10.8021C9.7644 10.9728 9.66773 11.1245 9.52608 11.2246C9.38442 11.3247 9.20911 11.3652 9.03792 11.3372C8.03846 11.1667 7.01734 11.1667 6.01788 11.3372C5.84672 11.3649 5.67151 11.3244 5.52991 11.2243C5.3883 11.1243 5.2916 10.9726 5.26056 10.8021L5.11078 9.98836C5.09499 9.90243 5.09633 9.81423 5.1147 9.72881C5.13307 9.6434 5.16812 9.56245 5.21784 9.49061C5.26756 9.41877 5.33096 9.35745 5.40443 9.31016C5.47789 9.26287 5.55997 9.23055 5.64595 9.21505C6.89039 9.01198 8.15952 9.01198 9.40395 9.21505C9.48993 9.23055 9.57201 9.26287 9.64548 9.31016C9.71894 9.35745 9.78235 9.41877 9.83206 9.49061C9.88178 9.56245 9.91683 9.6434 9.9352 9.72881C9.95358 9.81423 9.95491 9.90243 9.93913 9.98836L9.79524 10.8021Z" fill="url(#paint0_linear_28_1183)"/>
<path id="Vector_5" d="M7.5174 0.380552C6.29222 0.36793 2.89941 0.486578 3.03741 2.19813C3.19561 4.15875 5.87233 9.6872 5.87233 9.6872H9.16332C9.16332 9.6872 11.84 4.15791 11.9982 2.19813C12.1371 0.486578 8.74342 0.36793 7.5174 0.380552ZM7.24476 3.31812C7.03271 2.39251 7.2944 1.83377 7.55694 1.52158C7.78356 1.71711 7.95367 1.96978 8.04956 2.25332C8.14545 2.53685 8.16364 2.8409 8.10222 3.13384C8.06183 3.34337 7.87754 3.98625 7.63099 4.80921C7.43661 4.07544 7.28936 3.50998 7.24476 3.31812Z" fill="url(#paint1_linear_28_1183)"/>
<path id="Vector_6" d="M6.5834 2.82252C6.35452 2.56082 4.00767 2.11905 3.17798 2.97735C3.76112 5.32673 5.87068 9.6847 5.87068 9.6847H8.66604C8.5415 9.34054 6.84594 4.39354 6.59771 2.92686C6.5935 2.89152 6.58845 2.85702 6.5834 2.82252Z" fill="url(#paint2_linear_28_1183)"/>
<g id="Vector_7" style="mix-blend-mode:screen">
<path d="M9.66837 0.522694C7.04804 0.407413 6.3311 1.33387 6.60037 2.92677C6.85281 4.39345 8.54417 9.34045 8.66871 9.68461H9.16433C9.16433 9.68461 11.841 4.15532 11.9992 2.19554C12.0809 1.17231 10.8952 0.718756 9.66837 0.522694ZM11.3345 3.09507C11.0938 3.92812 10.3601 6.00318 8.90095 8.9761L7.63117 4.80577C7.43679 4.07454 7.28953 3.50991 7.24494 3.31469C7.03289 2.38907 7.29458 1.83034 7.55712 1.51815C8.28835 0.53195 10.2793 0.929123 10.9525 1.33471C11.1653 1.46682 11.6929 1.79415 11.3345 3.09507Z" fill="#CDD50E"/>
</g>
<g id="Vector_8" style="mix-blend-mode:multiply" opacity="0.5">
<path d="M10.9522 1.33472C10.279 0.930818 8.28812 0.531962 7.55688 1.51816C7.7835 1.71369 7.95361 1.96636 8.0495 2.24989C8.14539 2.53343 8.16358 2.83748 8.10217 3.13042C8.06177 3.33995 7.87749 3.98283 7.63093 4.80578L8.90072 8.97611C10.3598 6.0032 11.0936 3.92729 11.3342 3.09508C11.6927 1.79417 11.1651 1.46683 10.9522 1.33472Z" fill="#AE21C4"/>
</g>
<path id="Vector_9" d="M9.79524 10.8021C9.7644 10.9728 9.66773 11.1245 9.52608 11.2246C9.38442 11.3247 9.20911 11.3652 9.03792 11.3372C8.03846 11.1667 7.01734 11.1667 6.01788 11.3372C5.84672 11.3649 5.67151 11.3244 5.52991 11.2243C5.3883 11.1243 5.2916 10.9726 5.26056 10.8021L5.11078 9.98836C5.09499 9.90243 5.09633 9.81423 5.1147 9.72881C5.13307 9.6434 5.16812 9.56245 5.21784 9.49061C5.26756 9.41877 5.33096 9.35745 5.40443 9.31016C5.47789 9.26287 5.55997 9.23055 5.64595 9.21505C6.89039 9.01198 8.15952 9.01198 9.40395 9.21505C9.48993 9.23055 9.57201 9.26287 9.64548 9.31016C9.71894 9.35745 9.78235 9.41877 9.83206 9.49061C9.88178 9.56245 9.91683 9.6434 9.9352 9.72881C9.95358 9.81423 9.95491 9.90243 9.93913 9.98836L9.79524 10.8021Z" fill="url(#paint3_linear_28_1183)"/>
<g id="Vector_10" style="mix-blend-mode:overlay">
<path d="M9.40991 9.21507C8.78887 9.11244 8.16038 9.0615 7.53091 9.06277C7.07288 9.06357 6.61524 9.08998 6.16016 9.14187C8.11405 9.14187 9.2921 9.58616 9.4604 9.82177C9.62869 10.0574 9.4604 10.861 9.31482 10.9578C9.22058 11.0209 9.24835 11.2102 9.27949 11.3314C9.40834 11.3044 9.52622 11.2396 9.6181 11.1454C9.70998 11.0511 9.77167 10.9316 9.79531 10.8021L9.94508 9.98838C9.96087 9.90245 9.95953 9.81425 9.94116 9.72884C9.92279 9.64342 9.88774 9.56248 9.83802 9.49064C9.7883 9.4188 9.7249 9.35747 9.65143 9.31019C9.57797 9.2629 9.49589 9.23058 9.40991 9.21507Z" fill="#FEA012"/>
</g>
<path id="Vector_11" d="M9.18433 10.8299C8.10306 10.4843 6.94096 10.4843 5.85968 10.8299C5.72 10.8778 5.60135 11.0175 5.51636 11.2094C5.58743 11.2638 5.66885 11.3033 5.75565 11.3253C5.84245 11.3472 5.93281 11.3513 6.02124 11.3373C7.02069 11.1667 8.04182 11.1667 9.04127 11.3373C9.12677 11.3509 9.21413 11.3475 9.29832 11.3273C9.3825 11.3071 9.46188 11.2705 9.53186 11.2195C9.44434 11.0226 9.3257 10.8795 9.18433 10.8299Z" fill="#991602"/>
<path id="Vector_12" d="M7.41303 21.3995C10.3074 21.3995 12.6537 19.0705 12.6537 16.1976C12.6537 13.3246 10.3074 10.9956 7.41303 10.9956C4.51869 10.9956 2.17236 13.3246 2.17236 16.1976C2.17236 19.0705 4.51869 21.3995 7.41303 21.3995Z" fill="url(#paint4_linear_28_1183)"/>
<g id="Vector_13" style="mix-blend-mode:overlay">
<path d="M7.77655 11.01C6.66749 12.9698 6.67758 15.1063 7.93558 16.1733C9.09512 17.1569 10.9767 16.9457 12.6352 15.8013C12.5309 14.5541 11.9837 13.3854 11.0925 12.5066C10.2014 11.6278 9.02512 11.0969 7.77655 11.01Z" fill="#FEA012"/>
</g>
<g id="Vector_14" style="mix-blend-mode:overlay">
<path d="M7.19191 19.9228C8.9774 19.9228 10.4248 18.4162 10.4248 16.5578C10.4248 14.6993 8.9774 13.1927 7.19191 13.1927C5.40641 13.1927 3.95898 14.6993 3.95898 16.5578C3.95898 18.4162 5.40641 19.9228 7.19191 19.9228Z" fill="#FEA012"/>
</g>
<path id="Vector_15" d="M7.41313 19.6021C9.27159 19.6021 10.7782 18.0956 10.7782 16.2371C10.7782 14.3786 9.27159 12.8721 7.41313 12.8721C5.55467 12.8721 4.0481 14.3786 4.0481 16.2371C4.0481 18.0956 5.55467 19.6021 7.41313 19.6021Z" fill="url(#paint5_radial_28_1183)"/>
<path id="Vector_16" opacity="0.9" d="M7.41311 13.292C8.26906 13.2924 9.09268 13.619 9.7164 14.2052C10.3401 14.7914 10.7171 15.5932 10.7706 16.4475C10.7706 16.3776 10.7781 16.3086 10.7781 16.2379C10.7781 15.3453 10.4235 14.4891 9.7923 13.8579C9.16108 13.2267 8.30495 12.8721 7.41226 12.8721C6.51958 12.8721 5.66345 13.2267 5.03223 13.8579C4.401 14.4891 4.04639 15.3453 4.04639 16.2379C4.04639 16.3086 4.04639 16.3776 4.05396 16.4475C4.10748 15.5929 4.48467 14.7909 5.10874 14.2046C5.73282 13.6184 6.55686 13.292 7.41311 13.292Z" fill="#991602"/>
<g id="Vector_17" style="mix-blend-mode:multiply" opacity="0.51">
<path d="M7.41313 19.6021C9.27159 19.6021 10.7782 18.0956 10.7782 16.2371C10.7782 14.3786 9.27159 12.8721 7.41313 12.8721C5.55467 12.8721 4.0481 14.3786 4.0481 16.2371C4.0481 18.0956 5.55467 19.6021 7.41313 19.6021Z" fill="#AE21C4"/>
</g>
<path id="Vector_18" d="M9.71358 12.0905C9.83475 11.9054 10.1175 11.9812 10.4044 12.1696C10.6914 12.3581 10.8731 12.5862 10.752 12.7713C10.6308 12.9564 10.3413 12.8899 10.0544 12.7023C9.76744 12.5146 9.59157 12.2765 9.71358 12.0905Z" fill="#FCE867"/>
<path id="Vector_19" d="M4.41 18.3266C4.53959 18.1886 4.75248 18.2828 4.94938 18.4679C5.14629 18.6531 5.25316 18.8609 5.12357 18.9989C4.99399 19.1369 4.77352 19.0494 4.57662 18.8643C4.37971 18.6791 4.28042 18.4646 4.41 18.3266Z" fill="#FEB121"/>
<path id="Vector_20" d="M5.28235 19.0907C5.39595 18.9468 5.53984 18.9653 5.65933 19.0604C5.77881 19.1554 5.82761 19.2909 5.7157 19.4348C5.6692 19.4896 5.60322 19.5242 5.5317 19.5312C5.46018 19.5382 5.38873 19.5172 5.33246 19.4725C5.27618 19.4278 5.23949 19.363 5.23014 19.2917C5.22079 19.2205 5.23951 19.1484 5.28235 19.0907Z" fill="#FEB121"/>
<path id="Vector_21" d="M9.0716 9.48783C9.1364 9.38769 9.28871 9.42892 9.44269 9.5299C9.59668 9.63088 9.69513 9.75373 9.62866 9.85302C9.56218 9.95232 9.40904 9.91698 9.25505 9.816C9.10106 9.71502 9.00597 9.58712 9.0716 9.48783Z" fill="#FCE867"/>
<path id="Vector_22" d="M7.94904 0.649824C7.66077 0.733208 7.39405 0.878196 7.16731 1.07477C6.95513 1.27243 6.80291 1.52585 6.72806 1.806C6.65428 2.09321 6.62588 2.3902 6.64392 2.68618C6.65822 2.98659 6.70198 3.28699 6.74742 3.59244C6.62554 3.30595 6.54071 3.00508 6.49498 2.69712C6.44709 2.38252 6.46254 2.06153 6.54042 1.75299C6.56482 1.67642 6.59091 1.599 6.62457 1.52495L6.67842 1.41556C6.6955 1.37853 6.71577 1.34305 6.739 1.30954C6.78321 1.24109 6.83364 1.17687 6.88963 1.11768C6.9174 1.08823 6.94433 1.05794 6.97378 1.02933L7.06971 0.954437C7.32433 0.763262 7.63165 0.655141 7.94988 0.644775C7.94988 0.644775 7.94988 0.649824 7.94904 0.649824Z" fill="white"/>
<path id="Vector_23" d="M6.66087 16.0731C6.82943 16.0747 6.99796 16.0674 7.16575 16.0513C7.2691 16.043 7.37078 16.0204 7.46784 15.9839C7.52755 15.9636 7.57858 15.9235 7.61257 15.8703C7.63829 15.8217 7.65104 15.7672 7.6496 15.7121C7.65165 15.649 7.63652 15.5865 7.60584 15.5312C7.57713 15.4815 7.53632 15.4398 7.48719 15.4101C7.43518 15.3781 7.37835 15.3548 7.31889 15.3411C7.25088 15.3264 7.18148 15.319 7.1119 15.3192C7.03988 15.3192 6.96793 15.3237 6.89647 15.3326C6.82158 15.3411 6.7467 15.3537 6.67181 15.3697C6.59692 15.3857 6.52287 15.405 6.45134 15.4277C6.38265 15.4488 6.31522 15.4738 6.24939 15.5026V14.8C6.40867 14.7253 6.57654 14.6705 6.74922 14.6368C7.11216 14.569 7.48424 14.5662 7.84818 14.6283C7.98306 14.6521 8.11467 14.6916 8.2403 14.7461C8.34083 14.7897 8.43373 14.8491 8.51546 14.922C8.58547 14.9848 8.64462 15.0587 8.69049 15.1408C8.73385 15.2184 8.76533 15.3021 8.78389 15.389C8.80167 15.4748 8.81069 15.5622 8.81082 15.6499C8.81368 15.7657 8.79069 15.8807 8.74351 15.9865C8.70282 16.0737 8.64568 16.1523 8.57521 16.2179C8.51082 16.2766 8.43718 16.3244 8.35726 16.3592C8.28655 16.39 8.21336 16.4148 8.13848 16.4333C8.22464 16.4486 8.30915 16.472 8.39092 16.5031C8.48008 16.5364 8.56268 16.5851 8.63495 16.647C8.71289 16.7151 8.7764 16.798 8.82176 16.891C8.87537 17.0063 8.90103 17.1326 8.89665 17.2596C8.89669 17.3557 8.88682 17.4516 8.8672 17.5457C8.82712 17.7376 8.72441 17.9108 8.57521 18.038C8.4857 18.1135 8.38453 18.174 8.27564 18.2172C8.13845 18.2719 7.99567 18.3114 7.84987 18.335C7.66062 18.3648 7.46923 18.3789 7.27766 18.3771C7.09603 18.3783 6.91465 18.3631 6.73576 18.3316C6.56999 18.3019 6.40799 18.2539 6.25275 18.1886V17.4582C6.3176 17.4873 6.3842 17.5123 6.45218 17.5331C6.5237 17.555 6.59775 17.5743 6.67348 17.5911C6.74922 17.608 6.82495 17.6198 6.90069 17.6282C6.97187 17.637 7.04352 17.6415 7.11525 17.6416C7.18297 17.6415 7.25046 17.6336 7.31637 17.6181C7.37864 17.6043 7.43775 17.5789 7.49056 17.5432C7.54141 17.5091 7.58326 17.4632 7.61257 17.4094C7.64398 17.3459 7.6593 17.2757 7.65717 17.2049C7.65795 17.1403 7.64682 17.0761 7.62435 17.0156C7.59611 16.9515 7.54723 16.8988 7.4855 16.8658C7.39227 16.8155 7.29084 16.7822 7.18595 16.7674C7.01391 16.741 6.83992 16.7295 6.66591 16.7329L6.66087 16.0731Z" fill="#991602"/>
<path id="Vector_24" d="M6.66087 15.7365C6.82943 15.7381 6.99796 15.7308 7.16575 15.7146C7.2691 15.7064 7.37078 15.6837 7.46784 15.6473C7.52755 15.6269 7.57858 15.5868 7.61257 15.5337C7.63829 15.485 7.65104 15.4305 7.6496 15.3755C7.65165 15.3123 7.63652 15.2498 7.60584 15.1946C7.57713 15.1448 7.53632 15.1031 7.48719 15.0734C7.43518 15.0415 7.37835 15.0182 7.31889 15.0044C7.25088 14.9897 7.18148 14.9824 7.1119 14.9825C7.03988 14.9826 6.96793 14.9871 6.89647 14.996C6.82158 15.0044 6.7467 15.017 6.67181 15.033C6.59692 15.049 6.52287 15.0683 6.45134 15.0911C6.38265 15.1121 6.31522 15.1371 6.24939 15.166V14.4633C6.40867 14.3886 6.57654 14.3338 6.74922 14.3001C7.11216 14.2323 7.48424 14.2295 7.84818 14.2917C7.98306 14.3154 8.11467 14.355 8.2403 14.4095C8.34083 14.453 8.43373 14.5124 8.51546 14.5853C8.58547 14.6481 8.64462 14.722 8.69049 14.8041C8.73385 14.8817 8.76533 14.9654 8.78389 15.0524C8.80167 15.1382 8.81069 15.2256 8.81082 15.3132C8.81368 15.429 8.79069 15.544 8.74351 15.6498C8.70282 15.737 8.64568 15.8156 8.57521 15.8812C8.51082 15.94 8.43718 15.9877 8.35726 16.0226C8.28655 16.0534 8.21336 16.0781 8.13848 16.0966C8.22464 16.1119 8.30915 16.1353 8.39092 16.1665C8.48008 16.1997 8.56268 16.2484 8.63495 16.3104C8.71289 16.3784 8.7764 16.4614 8.82176 16.5544C8.87537 16.6696 8.90103 16.7959 8.89665 16.9229C8.89669 17.0191 8.88682 17.1149 8.8672 17.209C8.82712 17.401 8.72441 17.5741 8.57521 17.7013C8.4857 17.7768 8.38453 17.8374 8.27564 17.8805C8.13845 17.9353 7.99567 17.9748 7.84987 17.9983C7.66062 18.0282 7.46923 18.0422 7.27766 18.0404C7.09603 18.0417 6.91465 18.0264 6.73576 17.995C6.56999 17.9652 6.40799 17.9172 6.25275 17.8519V17.1215C6.3176 17.1506 6.3842 17.1756 6.45218 17.1964C6.5237 17.2183 6.59775 17.2377 6.67348 17.2545C6.74922 17.2713 6.82495 17.2831 6.90069 17.2915C6.97187 17.3003 7.04352 17.3048 7.11525 17.305C7.18297 17.3049 7.25046 17.2969 7.31637 17.2814C7.37864 17.2677 7.43775 17.2423 7.49056 17.2065C7.54141 17.1724 7.58326 17.1265 7.61257 17.0727C7.64398 17.0093 7.6593 16.939 7.65717 16.8682C7.65795 16.8037 7.64682 16.7395 7.62435 16.6789C7.59611 16.6149 7.54723 16.5621 7.4855 16.5291C7.39227 16.4788 7.29084 16.4455 7.18595 16.4307C7.01391 16.4044 6.83992 16.3928 6.66591 16.3962L6.66087 15.7365Z" fill="url(#paint6_linear_28_1183)"/>
</g>
<defs>
<linearGradient id="paint0_linear_28_1183" x1="6.63468" y1="11.4096" x2="8.31761" y2="9.08714" gradientUnits="userSpaceOnUse">
<stop stop-color="#F6A000"/>
<stop offset="1" stop-color="#FFE815"/>
</linearGradient>
<linearGradient id="paint1_linear_28_1183" x1="7.5174" y1="-0.215208" x2="7.5174" y2="8.51251" gradientUnits="userSpaceOnUse">
<stop stop-color="#FFE815"/>
<stop offset="1" stop-color="#F6A000"/>
</linearGradient>
<linearGradient id="paint2_linear_28_1183" x1="5.10747" y1="2.51875" x2="6.65661" y2="9.76296" gradientUnits="userSpaceOnUse">
<stop stop-color="#F6A000"/>
<stop offset="1" stop-color="#FFE815"/>
</linearGradient>
<linearGradient id="paint3_linear_28_1183" x1="6.63215" y1="11.4096" x2="8.3193" y2="9.08714" gradientUnits="userSpaceOnUse">
<stop stop-color="#C4381A"/>
<stop offset="1" stop-color="#F57B29"/>
</linearGradient>
<linearGradient id="paint4_linear_28_1183" x1="9.05053" y1="12.7417" x2="5.57527" y2="20.0751" gradientUnits="userSpaceOnUse">
<stop stop-color="#F57B29"/>
<stop offset="1" stop-color="#C4381A"/>
</linearGradient>
<radialGradient id="paint5_radial_28_1183" cx="0" cy="0" r="1" gradientUnits="userSpaceOnUse" gradientTransform="translate(6.96746 16.0974) scale(3.34805)">
<stop stop-color="#F57B29"/>
<stop offset="1" stop-color="#C4381A"/>
</radialGradient>
<linearGradient id="paint6_linear_28_1183" x1="7.93906" y1="14.8521" x2="6.14168" y2="19.5357" gradientUnits="userSpaceOnUse">
<stop stop-color="#F57B29"/>
<stop offset="1" stop-color="#C4381A"/>
</linearGradient>
</defs>
</svg>
