<svg width="37" height="29" viewBox="0 0 37 29" fill="none" xmlns="http://www.w3.org/2000/svg">
<g id="Group">
<path id="Vector" d="M30.6507 3.23336C28.343 2.18054 25.8683 1.40486 23.2809 0.960604C23.2338 0.95203 23.1867 0.973457 23.1624 1.01631C22.8442 1.57913 22.4916 2.31338 22.2447 2.8905C19.4618 2.47624 16.6932 2.47624 13.9673 2.8905C13.7204 2.30055 13.355 1.57913 13.0353 1.01631C13.0111 0.974887 12.964 0.95346 12.9169 0.960604C10.3309 1.40344 7.85623 2.17912 5.5471 3.23336C5.52711 3.24193 5.50998 3.25623 5.4986 3.27479C0.804686 10.2473 -0.481175 17.0485 0.149625 23.7653C0.152479 23.7982 0.171032 23.8296 0.196721 23.8496C3.29363 26.1109 6.29352 27.4837 9.2377 28.3937C9.28482 28.408 9.33475 28.3908 9.36473 28.3522C10.0612 27.4066 10.682 26.4095 11.2143 25.3609C11.2457 25.2995 11.2157 25.2267 11.1515 25.2024C10.1668 24.831 9.22914 24.3781 8.32718 23.8639C8.25583 23.8225 8.25012 23.721 8.31575 23.6724C8.50556 23.531 8.69542 23.3839 8.87666 23.2353C8.90945 23.2082 8.95514 23.2025 8.99369 23.2196C14.9192 25.9095 21.3342 25.9095 27.1898 23.2196C27.2283 23.201 27.274 23.2068 27.3083 23.2339C27.4895 23.3825 27.6794 23.531 27.8706 23.6724C27.9362 23.721 27.9319 23.8225 27.8606 23.8639C26.9586 24.3881 26.021 24.831 25.0348 25.201C24.9706 25.2253 24.9421 25.2995 24.9735 25.3609C25.5172 26.408 26.138 27.4051 26.8216 28.3508C26.8502 28.3908 26.9015 28.408 26.9486 28.3937C29.9071 27.4837 32.907 26.1109 36.0039 23.8496C36.031 23.8296 36.0481 23.7996 36.051 23.7667C36.8059 16.0013 34.7865 9.25596 30.6977 3.2762C30.6877 3.25623 30.6707 3.24193 30.6507 3.23336ZM12.0992 19.6755C10.3152 19.6755 8.84524 18.047 8.84524 16.0471C8.84524 14.0472 10.2867 12.4187 12.0992 12.4187C13.9259 12.4187 15.3816 14.0614 15.353 16.0471C15.353 18.047 13.9116 19.6755 12.0992 19.6755ZM24.13 19.6755C22.3461 19.6755 20.8761 18.047 20.8761 16.0471C20.8761 14.0472 22.3175 12.4187 24.13 12.4187C25.9568 12.4187 27.4124 14.0614 27.3839 16.0471C27.3839 18.047 25.9568 19.6755 24.13 19.6755Z" fill="#3370E3"/>
</g>
</svg>
