<svg width="32" height="32" viewBox="0 0 32 32" fill="none" xmlns="http://www.w3.org/2000/svg">
<g id="Friends">
<path id="Vector" fill-rule="evenodd" clip-rule="evenodd" d="M16 3.66675C15.0795 3.66675 14.3334 4.41293 14.3334 5.33341C14.3334 6.25389 15.0795 7.00008 16 7.00008C16.9206 7.00008 17.6667 6.25389 17.6667 5.33341C17.6667 4.41293 16.9206 3.66675 16 3.66675ZM12.3334 5.33341C12.3334 3.30837 13.975 1.66675 16 1.66675C18.0251 1.66675 19.6667 3.30837 19.6667 5.33341C19.6667 7.35845 18.0251 9.00008 16 9.00008C13.975 9.00008 12.3334 7.35845 12.3334 5.33341ZM22.6526 9.55184C24.547 9.14589 26.3334 10.59 26.3334 12.5275C26.3334 13.8373 25.4952 15.0002 24.2526 15.4145L21.3522 16.3813C21.1694 16.4422 21.06 16.4789 20.979 16.5095C20.9276 16.5289 20.906 16.5393 20.9008 16.5418C20.7914 16.611 20.7318 16.7371 20.748 16.8655C20.7494 16.8713 20.7551 16.8946 20.7727 16.9465C20.8006 17.0286 20.8418 17.1363 20.911 17.3161L22.5734 21.6383C23.3202 23.5799 21.887 25.6667 19.8066 25.6667C18.7428 25.6667 17.7607 25.0967 17.2328 24.1731L16 22.0157L14.7672 24.1731C14.2394 25.0967 13.2572 25.6667 12.1934 25.6667C10.1131 25.6667 8.67994 23.5799 9.42671 21.6383L11.0891 17.3161C11.1583 17.1363 11.1995 17.0286 11.2274 16.9465C11.245 16.8946 11.2507 16.8713 11.252 16.8655C11.2683 16.7371 11.2087 16.611 11.0993 16.5418C11.094 16.5393 11.0725 16.5289 11.0211 16.5095C10.94 16.4789 10.8307 16.4422 10.6479 16.3813L7.74751 15.4145C6.50486 15.0002 5.66669 13.8373 5.66669 12.5275C5.66669 10.59 7.45307 9.14589 9.34749 9.55184L11.8776 10.094C12.0196 10.1244 12.0859 10.1386 12.1514 10.1522C14.6903 10.6773 17.3098 10.6773 19.8487 10.1522C19.9142 10.1386 19.9804 10.1244 20.1224 10.094L22.6526 9.55184ZM24.3334 12.5275C24.3334 11.8633 23.721 11.3683 23.0716 11.5074L20.5379 12.0504C20.4008 12.0797 20.3271 12.0955 20.2538 12.1107C17.4476 12.6912 14.5524 12.6912 11.7463 12.1107C11.673 12.0955 11.5993 12.0798 11.4625 12.0505L8.92843 11.5074C8.27905 11.3683 7.66669 11.8633 7.66669 12.5275C7.66669 12.9765 7.95401 13.3751 8.37998 13.5171L11.2804 14.4839C11.3045 14.4919 11.3288 14.4999 11.3532 14.5081C11.6273 14.5989 11.9121 14.6933 12.147 14.8382C12.9324 15.323 13.3582 16.2254 13.2332 17.1398C13.1958 17.4133 13.0876 17.6931 12.9834 17.9625C12.9742 17.9865 12.9649 18.0103 12.9558 18.0341L11.2934 22.3563C11.0505 22.9879 11.5167 23.6667 12.1934 23.6667C12.5395 23.6667 12.859 23.4813 13.0307 23.1809L15.1318 19.5039C15.3098 19.1923 15.6412 19.0001 16 19.0001C16.3588 19.0001 16.6903 19.1923 16.8683 19.5039L18.9694 23.1809C19.1411 23.4813 19.4606 23.6667 19.8066 23.6667C20.4834 23.6667 20.9496 22.9879 20.7067 22.3563L19.0443 18.0341C19.0351 18.0103 19.0259 17.9865 19.0166 17.9625C18.9124 17.6931 18.8043 17.4133 18.7668 17.1398C18.6419 16.2254 19.0676 15.323 19.8531 14.8382C20.0879 14.6933 20.3727 14.5989 20.6468 14.5081C20.6712 14.4999 20.6955 14.4919 20.7196 14.4839L23.62 13.5171C24.046 13.3751 24.3334 12.9765 24.3334 12.5275ZM6.95521 18.8842C7.20329 19.3777 7.00439 19.9787 6.51097 20.2269C4.48307 21.2465 3.66669 22.3933 3.66669 23.3334C3.66669 24.3517 4.63203 25.6065 6.9823 26.6641C9.23869 27.6795 12.426 28.3334 16 28.3334C19.574 28.3334 22.7614 27.6795 25.0178 26.6641C27.368 25.6065 28.3334 24.3517 28.3334 23.3334C28.3334 22.3933 27.517 21.2465 25.4891 20.2269C24.9956 19.9787 24.7967 19.3777 25.0448 18.8842C25.293 18.3907 25.894 18.1919 26.3875 18.4399C28.5822 19.5434 30.3334 21.2001 30.3334 23.3334C30.3334 25.6289 28.3139 27.3741 25.8384 28.4879C23.2691 29.6442 19.7899 30.3334 16 30.3334C12.2102 30.3334 8.73089 29.6442 6.16157 28.4879C3.68611 27.3741 1.66669 25.6289 1.66669 23.3334C1.66669 21.2001 3.41789 19.5434 5.61257 18.4399C6.10599 18.1919 6.70711 18.3907 6.95521 18.8842Z" fill="#3370E3"/>
</g>
</svg>
