<svg width="32" height="32" viewBox="0 0 32 32" fill="none" xmlns="http://www.w3.org/2000/svg">
<g id="Home">
<path id="Vector" d="M29.3333 16.2719V18.3001C29.3333 23.5011 29.3333 26.1018 27.7712 27.7175C26.2092 29.3334 23.6949 29.3334 18.6667 29.3334H13.3334C8.30503 29.3334 5.79089 29.3334 4.22878 27.7175C2.66669 26.1018 2.66669 23.5011 2.66669 18.3001V16.2719C2.66669 13.2207 2.66669 11.6951 3.35895 10.4304C4.05122 9.16569 5.31595 8.38076 7.84539 6.81092L10.5121 5.15591C13.1859 3.49647 14.5228 2.66675 16 2.66675C17.4772 2.66675 18.8141 3.49647 21.488 5.15591L24.1547 6.81091C26.6841 8.38076 27.9488 9.16569 28.6411 10.4304" stroke="#3370E3" stroke-width="2" stroke-linecap="round"/>
<path id="Vector_2" d="M20 24H12" stroke="#3370E3" stroke-width="2" stroke-linecap="round"/>
</g>
</svg>
