<svg width="36" height="36" viewBox="0 0 36 36" fill="none" xmlns="http://www.w3.org/2000/svg">
<g id="Frame" clip-path="url(#clip0_2080_1680)">
<g id="Group">
<path id="Vector" d="M18.0085 12.0215C14.6961 12.0215 12.0268 14.7092 12.0268 18.0247C12.0268 21.324 14.7282 24.0439 18.0246 24.0278C21.3049 24.0278 24.0385 21.2918 24.0224 18.0086C24.0063 14.7253 21.3049 12.0215 18.0085 12.0215Z" fill="#fff"/>
<path id="Vector_2" d="M35.791 9.44658C35.5498 6.22798 34.1992 3.55655 31.4015 1.75413C29.6811 0.659812 27.7678 0.241395 25.7579 0.128744C25.1791 0.0965579 24.6003 0.0482789 24.0214 0C20.0179 0 16.0143 0 11.9946 0C11.046 0.0804649 10.0813 0.128744 9.13265 0.225302C4.14828 0.75637 0.755694 4.15199 0.2251 9.15691C0.128629 10.1064 0.0643144 11.072 0 12.0215C0 16.0286 0 20.0358 0 24.059C0.11255 25.2338 0.144707 26.4247 0.337651 27.5673C1.17374 32.3791 4.53417 35.5494 9.42206 35.8069C13.699 36.0322 17.9759 36 22.2689 35.9839C24.0858 35.9839 25.9348 35.9517 27.7034 35.646C32.4145 34.8413 35.4855 31.4135 35.7749 26.6017C35.9839 23.19 35.9678 19.7622 35.9839 16.3344C36 14.0492 35.9678 11.7318 35.791 9.44658ZM18.0241 27.2937C12.9272 27.3098 8.76284 23.1578 8.76284 18.0402C8.76284 12.9066 12.8629 8.77067 17.992 8.77067C23.105 8.77067 27.2532 12.8905 27.2693 18.008C27.2693 23.1095 23.121 27.2776 18.0241 27.2937ZM27.6391 10.5731C26.4332 10.5892 25.4524 9.6236 25.4524 8.41663C25.4524 7.22575 26.3689 6.27626 27.5587 6.24408C28.7807 6.21189 29.7615 7.16138 29.7776 8.36835C29.8097 9.55923 28.845 10.557 27.6391 10.5731Z" fill="#fff"/>
</g>
</g>
<defs>
<clipPath id="clip0_2080_1680">
<rect width="36" height="36" fill="white"/>
</clipPath>
</defs>
</svg>
