<svg width="36" height="36" viewBox="0 0 36 36" fill="none" xmlns="http://www.w3.org/2000/svg">
<g id="kucoin-svgrepo-com 1" clip-path="url(#clip0_2093_755)">
<path id="Vector" d="M18 36C27.9411 36 36 27.9411 36 18C36 8.05887 27.9411 0 18 0C8.05887 0 0 8.05887 0 18C0 27.9411 8.05887 36 18 36Z" fill="#23AF91"/>
<path id="Vector_2" d="M14.9766 18.0034L20.3063 23.3366L23.6707 19.9722C24.2719 19.4308 25.193 19.4554 25.766 20.0284C26.3391 20.6015 26.3637 21.5226 25.8223 22.1237L21.382 26.5605C20.7844 27.1476 19.8281 27.1476 19.234 26.5605L12.8285 20.1515V23.9589C12.8285 24.7991 12.1465 25.4812 11.3063 25.4812C10.466 25.4812 9.784 24.7991 9.784 23.9589V12.0374C9.784 11.1972 10.466 10.5151 11.3063 10.5151C12.1465 10.5151 12.8285 11.1972 12.8285 12.0374V15.8448L19.234 9.43936C19.8317 8.85225 20.7879 8.85225 21.382 9.43936L25.8258 13.8796C26.3672 14.4808 26.3426 15.4019 25.7695 15.9749C25.1965 16.5479 24.2754 16.5726 23.6742 16.0312L20.3098 12.6667L14.9766 18.0034ZM20.3133 16.4776C19.6981 16.4776 19.1426 16.8468 18.9035 17.4163C18.668 17.9858 18.7981 18.6397 19.234 19.0757C19.6699 19.5116 20.3238 19.6417 20.8934 19.4062C21.4629 19.1706 21.8356 18.6151 21.8356 17.9999C21.8356 17.5956 21.6738 17.2089 21.3891 16.9206C21.1043 16.6394 20.7176 16.4776 20.3133 16.4776Z" fill="white"/>
</g>
<defs>
<clipPath id="clip0_2093_755">
<rect width="36" height="36" fill="white"/>
</clipPath>
</defs>
</svg>
