<svg width="13" height="24" viewBox="0 0 13 24" fill="none" xmlns="http://www.w3.org/2000/svg">
<g id="Group 1261158523">
<path id="Vector" d="M6.07522 24C4.46456 23.9981 2.92042 23.3574 1.78152 22.2185C0.642608 21.0796 0.00192576 19.5354 0 17.9248C0 17.8384 6.66184e-07 17.7529 0.00636787 17.6674V17.6383C0.00636787 17.5946 0.00636787 17.5473 0.00636787 17.5064C0.0157212 16.3665 0.344579 15.2521 0.95558 14.2898C1.56658 13.3274 2.43523 12.5558 3.46285 12.0624C3.41059 11.9626 3.3735 11.8557 3.35279 11.745L3.19088 10.8699C3.13838 10.5738 3.20543 10.2689 3.37735 10.0222C3.44193 9.92861 3.52046 9.84548 3.6102 9.77567L3.5438 9.62377C3.41828 9.33633 3.27093 8.9916 3.16905 8.73964C3.10629 8.58955 3.05899 8.47767 3.04352 8.44311C2.77064 7.85096 2.54142 7.31884 2.33131 6.81674C1.87014 5.71976 1.4026 4.53546 1.10061 3.3166C1.0217 3.01829 0.966951 2.7141 0.936887 2.407C0.917062 2.18257 0.945441 1.9565 1.02011 1.74393C1.09479 1.53136 1.21403 1.33721 1.36986 1.17449C2.35314 0.120265 4.81269 -0.0143569 6.19074 0.00110628C7.19676 0.0120215 8.26827 0.0438578 9.32431 0.301275C10.8852 0.681488 11.34 1.47648 11.4464 2.07591C11.5838 2.84543 11.2927 3.57675 11.0362 4.22165C10.968 4.39539 10.9025 4.55911 10.8479 4.71738C10.2275 6.50839 9.45621 8.24663 8.75581 9.74838C8.93052 9.87264 9.06612 10.0442 9.14668 10.2429C9.22725 10.4415 9.24943 10.6591 9.21061 10.8699C9.19606 10.9463 9.18515 11.0373 9.17241 11.1337C9.13057 11.4639 9.08145 11.8541 8.87952 12.1652C9.50927 12.4948 10.0764 12.9323 10.555 13.4577C11.5692 14.5711 12.1413 16.0656 12.1668 17.6655C12.1922 18.7814 11.9247 19.8844 11.3909 20.8646C10.8588 21.8085 10.0872 22.5953 9.15391 23.1458C8.22064 23.6963 7.1587 23.9909 6.07522 24ZM4.2351 10.3615C4.16065 10.3774 4.09537 10.4218 4.05318 10.4852C4.00528 10.5527 3.98599 10.6364 3.99951 10.718L4.16051 11.5967C4.17511 11.6718 4.21649 11.739 4.27694 11.7859C4.29395 11.7982 4.31189 11.8091 4.33061 11.8186L4.34698 11.8259C4.42351 11.8575 4.48866 11.9115 4.53384 11.9809C4.57902 12.0503 4.6021 12.1317 4.60003 12.2145C4.59796 12.2973 4.57084 12.3775 4.52225 12.4445C4.47366 12.5115 4.40589 12.5623 4.32788 12.59C3.31154 12.9521 2.43066 13.6171 1.80399 14.4954C1.17733 15.3737 0.835012 16.423 0.823187 17.5018C0.823187 17.5309 0.823187 17.5655 0.823187 17.601V17.6492V17.6819C0.823187 17.7611 0.816819 17.8402 0.816819 17.9202C0.818504 19.3138 1.37286 20.6499 2.3583 21.6353C3.34373 22.6208 4.67979 23.1751 6.0734 23.1768C7.0122 23.1692 7.93233 22.9138 8.74081 22.4366C9.54929 21.9593 10.2175 21.2771 10.6778 20.4589C11.1415 19.6039 11.3735 18.6425 11.3509 17.6701C11.3291 16.2893 10.8197 14.9513 9.95284 13.9999C9.39604 13.3887 8.70297 12.9175 7.92989 12.6245C7.84664 12.5926 7.77604 12.5345 7.72878 12.4589C7.68153 12.3833 7.66019 12.2943 7.66801 12.2055C7.67582 12.1167 7.71235 12.0328 7.77208 11.9667C7.83181 11.9005 7.91148 11.8555 7.99902 11.8386H8.01813C8.0575 11.8285 8.09455 11.8109 8.12728 11.7868C8.27736 11.6731 8.32284 11.3156 8.35923 11.0282C8.37287 10.9209 8.38652 10.8181 8.40471 10.7198C8.41524 10.6609 8.40848 10.6001 8.38523 10.5449C8.36199 10.4897 8.32326 10.4424 8.27373 10.4088L8.25917 10.4006C8.22705 10.3809 8.19159 10.3674 8.15457 10.3605H8.13273C8.07085 10.3495 8.01234 10.3243 7.96173 10.287C7.91111 10.2497 7.86975 10.2013 7.84083 10.1455C7.81191 10.0896 7.7962 10.0279 7.79493 9.96506C7.79365 9.9022 7.80684 9.8399 7.83348 9.78295C8.56843 8.21753 9.40891 6.35921 10.0702 4.45087C10.132 4.27441 10.203 4.09431 10.2721 3.92057C10.4986 3.35026 10.7333 2.75992 10.636 2.22053C10.545 1.6966 10.0347 1.31912 9.12602 1.09717C8.15366 0.860679 7.13672 0.830662 6.178 0.824295C4.09229 0.803374 2.51505 1.14356 1.96201 1.7339C1.88322 1.813 1.823 1.90864 1.78571 2.01389C1.74843 2.11913 1.73501 2.23135 1.74643 2.34242C1.77377 2.6049 1.82121 2.8649 1.88833 3.12013C2.16121 4.22074 2.56234 5.26769 3.07991 6.50111C3.28638 6.99593 3.51652 7.52077 3.78303 8.10565C3.7994 8.14294 3.85034 8.26301 3.91765 8.42491C4.04499 8.72963 4.37245 9.51643 4.4725 9.69835C4.51855 9.75351 4.5493 9.8198 4.56168 9.89057C4.57405 9.96135 4.56762 10.0341 4.54303 10.1016C4.51844 10.1692 4.47655 10.229 4.42155 10.2753C4.36655 10.3215 4.30037 10.3525 4.22964 10.3651L4.2351 10.3615ZM4.16506 9.54918C4.14126 9.54912 4.11752 9.55125 4.09411 9.55555C4.12168 9.5503 4.14975 9.54816 4.17779 9.54918H4.16506Z" fill="#474747"/>
<path id="Vector_2" d="M6.07508 23.5899C9.20427 23.5899 11.741 21.0531 11.741 17.924C11.741 14.7948 9.20427 12.2581 6.07508 12.2581C2.94589 12.2581 0.40918 14.7948 0.40918 17.924C0.40918 21.0531 2.94589 23.5899 6.07508 23.5899Z" fill="#C24402"/>
<path id="Vector_3" d="M6.07508 23.5899C9.20427 23.5899 11.741 21.0531 11.741 17.924C11.741 14.7948 9.20427 12.2581 6.07508 12.2581C2.94589 12.2581 0.40918 14.7948 0.40918 17.924C0.40918 21.0531 2.94589 23.5899 6.07508 23.5899Z" fill="#2B5F9E"/>
<path id="Vector_4" d="M8.65123 11.6704C8.61767 11.8548 8.51316 12.0188 8.36013 12.1271C8.2071 12.2354 8.01771 12.2795 7.83259 12.2498C6.75221 12.0655 5.64841 12.0655 4.56803 12.2498C4.38291 12.2795 4.19353 12.2354 4.04049 12.1271C3.88746 12.0188 3.78296 11.8548 3.74939 11.6704L3.58749 10.7917C3.55473 10.604 3.59784 10.411 3.70735 10.2551C3.81686 10.0992 3.98379 9.9932 4.17145 9.96034C5.51783 9.74043 6.89098 9.74043 8.23736 9.96034C8.33031 9.9771 8.41903 10.012 8.49844 10.0632C8.57785 10.1143 8.64639 10.1806 8.70014 10.2582C8.75388 10.3359 8.79177 10.4234 8.81163 10.5157C8.83149 10.608 8.83293 10.7034 8.81587 10.7963L8.65123 11.6704Z" fill="url(#paint0_linear_28_1184)"/>
<path id="Vector_5" d="M6.18795 0.409634C4.86357 0.39599 1.19607 0.524243 1.34524 2.37346C1.51625 4.49374 4.40968 10.4689 4.40968 10.4689H7.9644C7.9644 10.4689 10.8578 4.49192 11.0288 2.37346C11.1807 0.520604 7.5096 0.392351 6.18795 0.409634ZM5.89324 3.58141C5.66493 2.58085 5.94691 1.97688 6.23071 1.63941C6.47591 1.85059 6.65994 2.1237 6.76362 2.43025C6.86729 2.7368 6.88681 3.06555 6.82012 3.38221C6.77646 3.6087 6.57817 4.30363 6.31166 5.19322C6.10063 4.39914 5.94145 3.7888 5.89324 3.57777V3.58141Z" fill="url(#paint1_linear_28_1184)"/>
<path id="Vector_6" d="M5.17846 3.04752C4.93105 2.76463 2.39418 2.288 1.49731 3.21579C2.12767 5.7554 4.40804 10.4653 4.40804 10.4653H7.43063C7.2951 10.0942 5.46226 4.74665 5.19393 3.16122C5.18938 3.12028 5.18392 3.08299 5.17846 3.04752Z" fill="url(#paint2_linear_28_1184)"/>
<g id="Vector_7" style="mix-blend-mode:overlay">
<path d="M8.51018 0.559621C5.67768 0.434096 4.9027 1.43648 5.19377 3.15835C5.46665 4.74378 7.29495 10.0913 7.43048 10.4624H7.96442C7.96442 10.4624 10.8579 4.48546 11.0289 2.367C11.1207 1.26092 9.8391 0.773377 8.51018 0.559621ZM10.3112 3.34027C10.051 4.23986 9.25878 6.48294 7.68062 9.69747L6.30894 5.18949C6.09791 4.39904 5.93874 3.7887 5.89053 3.57768C5.66222 2.57712 5.94419 1.97314 6.22799 1.63568C7.01843 0.568717 9.17055 0.998959 9.89823 1.43739C10.1311 1.57565 10.7023 1.93312 10.3139 3.34027H10.3112Z" fill="#5ED197"/>
</g>
<g id="Vector_8" style="mix-blend-mode:multiply" opacity="0.3">
<path d="M9.90095 1.43738C9.17327 1.00077 7.02116 0.568708 6.23071 1.63567C6.47591 1.84685 6.65995 2.11996 6.76363 2.4265C6.8673 2.73305 6.88682 3.0618 6.82013 3.37846C6.77647 3.60495 6.57818 4.29989 6.31167 5.18948L7.68334 9.69746C9.2615 6.48293 10.0538 4.23986 10.3139 3.34026C10.7023 1.93311 10.1311 1.57564 9.90095 1.43738Z" fill="#392C82"/>
</g>
<path id="Vector_9" d="M8.65123 11.6704C8.61767 11.8548 8.51316 12.0188 8.36013 12.1271C8.2071 12.2354 8.01771 12.2795 7.83259 12.2498C6.75221 12.0655 5.64841 12.0655 4.56803 12.2498C4.38291 12.2795 4.19353 12.2354 4.04049 12.1271C3.88746 12.0188 3.78296 11.8548 3.74939 11.6704L3.58749 10.7917C3.55473 10.604 3.59784 10.411 3.70735 10.2551C3.81686 10.0992 3.98379 9.9932 4.17145 9.96034C5.51783 9.74043 6.89098 9.74043 8.23736 9.96034C8.33031 9.9771 8.41903 10.012 8.49844 10.0632C8.57785 10.1143 8.64639 10.1806 8.70014 10.2582C8.75388 10.3359 8.79177 10.4234 8.81163 10.5157C8.83149 10.608 8.83293 10.7034 8.81587 10.7963L8.65123 11.6704Z" fill="url(#paint3_linear_28_1184)"/>
<g id="Vector_10" style="mix-blend-mode:screen" opacity="0.69">
<path d="M8.23736 9.96046C7.56609 9.84903 6.88668 9.79396 6.20622 9.79582C5.71112 9.7964 5.21644 9.82464 4.72449 9.88041C6.83658 9.88041 8.11002 10.3607 8.29194 10.6154C8.47386 10.8701 8.29194 11.7387 8.13458 11.8442C8.0327 11.9125 8.06272 12.1171 8.09638 12.2472C8.23567 12.2179 8.36311 12.1478 8.46254 12.046C8.56197 11.9441 8.62892 11.815 8.65487 11.6751L8.81587 10.7964C8.83293 10.7035 8.83149 10.6082 8.81163 10.5158C8.79177 10.4235 8.75388 10.336 8.70014 10.2583C8.64639 10.1807 8.57785 10.1144 8.49844 10.0633C8.41903 10.0122 8.33031 9.97722 8.23736 9.96046Z" fill="#A3EDFE"/>
</g>
<path id="Vector_11" d="M7.98992 11.7004C6.8209 11.3281 5.5651 11.3281 4.39609 11.7004C4.246 11.7531 4.11775 11.9032 4.02588 12.1106C4.10256 12.1698 4.19052 12.2126 4.28437 12.2366C4.37823 12.2605 4.47599 12.265 4.57164 12.2498C5.65202 12.0654 6.75582 12.0654 7.8362 12.2498C8.02284 12.2791 8.21349 12.2333 8.36649 12.1224C8.27371 11.9096 8.14637 11.754 7.98992 11.7004Z" fill="#2B5F9E"/>
<path id="Vector_12" d="M6.07514 23.1267C9.20383 23.1267 11.7401 20.6091 11.7401 17.5035C11.7401 14.3979 9.20383 11.8804 6.07514 11.8804C2.94646 11.8804 0.410156 14.3979 0.410156 17.5035C0.410156 20.6091 2.94646 23.1267 6.07514 23.1267Z" fill="url(#paint4_linear_28_1184)"/>
<g id="Vector_13" style="mix-blend-mode:screen" opacity="0.69">
<path d="M6.4691 11.896C5.27025 14.0135 5.28026 16.3239 6.64102 17.4773C7.89354 18.5397 9.9274 18.3123 11.7202 17.0753C11.6077 15.7271 11.0164 14.4638 10.0532 13.5138C9.09004 12.5638 7.81867 11.9899 6.4691 11.896Z" fill="#7CF3FE"/>
</g>
<g id="Vector_14" style="mix-blend-mode:screen" opacity="0.69">
<path d="M5.83599 21.5305C7.76605 21.5305 9.33068 19.9019 9.33068 17.893C9.33068 15.8841 7.76605 14.2555 5.83599 14.2555C3.90593 14.2555 2.34131 15.8841 2.34131 17.893C2.34131 19.9019 3.90593 21.5305 5.83599 21.5305Z" fill="#A3EDFE"/>
</g>
<path id="Vector_15" d="M9.58002 18.5223C10.1186 16.5869 8.98621 14.5814 7.05081 14.0429C5.11541 13.5043 3.10988 14.6367 2.57133 16.5721C2.03277 18.5075 3.16514 20.513 5.10054 21.0516C7.03594 21.5901 9.04147 20.4577 9.58002 18.5223Z" fill="url(#paint5_radial_28_1184)"/>
<path id="Vector_16" d="M6.0751 14.3628C7.00036 14.3633 7.89067 14.7163 8.56489 15.3499C9.23911 15.9836 9.64658 16.8503 9.70441 17.7738C9.70987 17.6983 9.71259 17.6228 9.71259 17.5464C9.71259 16.5814 9.32927 15.656 8.64693 14.9736C7.9646 14.2913 7.03916 13.908 6.07419 13.908C5.10923 13.908 4.18379 14.2913 3.50146 14.9736C2.81912 15.656 2.43579 16.5814 2.43579 17.5464C2.43579 17.6228 2.43579 17.6983 2.44307 17.7738C2.50093 16.8498 2.90879 15.9827 3.58359 15.349C4.25839 14.7153 5.14937 14.3626 6.0751 14.3628Z" fill="#2B5F9E"/>
<g id="Vector_17" style="mix-blend-mode:multiply" opacity="0.3">
<path d="M9.58002 18.5223C10.1186 16.5869 8.98621 14.5814 7.05081 14.0429C5.11541 13.5043 3.10988 14.6367 2.57133 16.5721C2.03277 18.5075 3.16514 20.513 5.10054 21.0516C7.03594 21.5901 9.04147 20.4577 9.58002 18.5223Z" fill="#392C82"/>
</g>
<path id="Vector_18" d="M8.55385 13.064C8.68301 12.8658 8.98682 12.9485 9.29609 13.155C9.60535 13.3615 9.80183 13.6025 9.67175 13.8008C9.54168 13.9991 9.2315 13.9263 8.92315 13.7235C8.61479 13.5207 8.42378 13.2614 8.55385 13.064Z" fill="white"/>
<path id="Vector_19" d="M2.8288 19.804C2.96887 19.6557 3.19992 19.7567 3.41276 19.9577C3.62561 20.1587 3.74022 20.3825 3.60014 20.5317C3.46006 20.6809 3.22175 20.5863 3.0089 20.3852C2.79605 20.1842 2.68872 19.9532 2.8288 19.804Z" fill="white"/>
<path id="Vector_20" d="M3.77209 20.6309C3.89488 20.4753 4.05043 20.4944 4.17959 20.5972C4.30876 20.7 4.36151 20.8464 4.24145 21.002C4.19154 21.0621 4.1201 21.1003 4.04239 21.1085C3.96467 21.1166 3.88686 21.0941 3.82556 21.0456C3.76427 20.9971 3.72436 20.9266 3.71437 20.8491C3.70438 20.7716 3.72509 20.6933 3.77209 20.6309Z" fill="white"/>
<path id="Vector_21" d="M7.85178 10.2749C7.92182 10.1685 8.08463 10.2131 8.25018 10.3213C8.41573 10.4296 8.52306 10.5624 8.45211 10.6688C8.38116 10.7752 8.21562 10.7361 8.05007 10.6269C7.88452 10.5178 7.78265 10.3814 7.85178 10.2749Z" fill="white"/>
<path id="Vector_22" d="M6.65459 0.697053C6.34268 0.786453 6.05421 0.943263 5.80957 1.1564C5.58022 1.37007 5.41567 1.644 5.33476 1.94684C5.25496 2.25699 5.22427 2.57773 5.2438 2.89738C5.25926 3.22301 5.30747 3.54774 5.35568 3.87793C5.2254 3.56844 5.13552 3.24346 5.08826 2.91102C5.03615 2.57102 5.05253 2.22403 5.13646 1.89045C5.16375 1.80677 5.19104 1.72399 5.22742 1.64304L5.28655 1.5257C5.30425 1.48528 5.32621 1.44686 5.35204 1.41109C5.39877 1.33659 5.45302 1.2671 5.51395 1.2037C5.54397 1.17186 5.57307 1.13821 5.60491 1.10819L5.70769 1.02633C5.98321 0.820314 6.3153 0.703797 6.65914 0.692505C6.65914 0.692505 6.6555 0.697053 6.65459 0.697053Z" fill="#85FFD6"/>
<path id="Vector_23" d="M5.07654 18.4978L5.41673 18.2295C5.53376 18.1373 5.64928 18.0424 5.76329 17.9448C5.87187 17.8521 5.97342 17.7515 6.0671 17.6437C6.15262 17.5467 6.22537 17.4391 6.28358 17.3235C6.33726 17.2191 6.36561 17.1035 6.36635 16.9861C6.36865 16.9219 6.35154 16.8585 6.31724 16.8042C6.28534 16.7557 6.2427 16.7152 6.19262 16.6859C6.1404 16.6554 6.08356 16.6336 6.02434 16.6213C5.96448 16.609 5.90354 16.6026 5.84242 16.6022C5.76482 16.6023 5.68732 16.6078 5.61047 16.6186C5.53225 16.6295 5.45675 16.6441 5.3849 16.6604C5.31304 16.6768 5.24481 16.6968 5.18205 16.7177C5.12856 16.736 5.07604 16.7569 5.02469 16.7805L4.84277 15.8873V15.5234L6.03435 15.7054C6.27202 15.7006 6.50897 15.7331 6.73656 15.8018C6.91614 15.8554 7.08358 15.9435 7.22956 16.061C7.35474 16.1632 7.45362 16.2939 7.51791 16.4421C7.57906 16.5859 7.61002 16.7407 7.60887 16.8969C7.60729 17.0792 7.56502 17.2588 7.48516 17.4227C7.39745 17.6064 7.28447 17.7769 7.14952 17.9293C7.00233 18.0982 6.83734 18.2507 6.65743 18.3841C6.46983 18.5235 6.26978 18.6453 6.05982 18.748H7.56975V19.7294H4.93191L4.78638 18.7471V18.3832L5.07654 18.4978Z" fill="#2B5F9E"/>
<path id="Vector_24" d="M6.06165 18.3915H7.57158V19.3657H4.93374L4.78821 18.3833C4.87189 18.3032 4.97013 18.2205 5.07837 18.1341L5.41856 17.8657C5.5356 17.7736 5.65111 17.6787 5.76512 17.581C5.8737 17.4883 5.97525 17.3877 6.06892 17.2799C6.15445 17.1829 6.2272 17.0753 6.28541 16.9598C6.33908 16.8553 6.36744 16.7397 6.36818 16.6223C6.37049 16.5581 6.35336 16.4947 6.31906 16.4404C6.28716 16.3919 6.24452 16.3515 6.19445 16.3221C6.14222 16.2916 6.08539 16.2698 6.02617 16.2576C5.96631 16.2452 5.90537 16.2388 5.84425 16.2385C5.76665 16.2385 5.68915 16.244 5.61231 16.2548C5.53408 16.2657 5.45858 16.2803 5.38672 16.2967C5.31486 16.313 5.24664 16.3331 5.18388 16.354C5.13039 16.3722 5.07787 16.3931 5.02652 16.4167L4.8446 15.5235C5.0449 15.4553 5.25148 15.4071 5.46131 15.3798C5.65201 15.3559 5.84398 15.3434 6.03618 15.3425C6.27385 15.3377 6.5108 15.3703 6.73839 15.4389C6.91797 15.4926 7.08541 15.5806 7.23139 15.6981C7.35657 15.8003 7.45544 15.931 7.51973 16.0793C7.58088 16.223 7.61184 16.3778 7.61069 16.5341C7.60911 16.7163 7.56685 16.896 7.48699 17.0598C7.39928 17.2435 7.2863 17.4141 7.15135 17.5665C7.00416 17.7353 6.83918 17.8878 6.65926 18.0213C6.47192 18.1629 6.27186 18.2868 6.06165 18.3915Z" fill="url(#paint6_linear_28_1184)"/>
</g>
<defs>
<linearGradient id="paint0_linear_28_1184" x1="5.23386" y1="12.328" x2="7.05306" y2="9.81754" gradientUnits="userSpaceOnUse">
<stop stop-color="#F6A000"/>
<stop offset="1" stop-color="#FFE815"/>
</linearGradient>
<linearGradient id="paint1_linear_28_1184" x1="6.18795" y1="0.331408" x2="6.18795" y2="8.58148" gradientUnits="userSpaceOnUse">
<stop stop-color="#25C264"/>
<stop offset="1" stop-color="#018A77"/>
</linearGradient>
<linearGradient id="paint2_linear_28_1184" x1="3.58394" y1="2.71733" x2="5.25851" y2="10.5481" gradientUnits="userSpaceOnUse">
<stop stop-color="#018A77"/>
<stop offset="1" stop-color="#25C264"/>
</linearGradient>
<linearGradient id="paint3_linear_28_1184" x1="5.23386" y1="12.328" x2="7.05306" y2="9.81754" gradientUnits="userSpaceOnUse">
<stop stop-color="#4A8AC2"/>
<stop offset="1" stop-color="#B6F1FF"/>
</linearGradient>
<linearGradient id="paint4_linear_28_1184" x1="7.84614" y1="21.2392" x2="4.08858" y2="13.3121" gradientUnits="userSpaceOnUse">
<stop stop-color="#4A8AC2"/>
<stop offset="1" stop-color="#B6F1FF"/>
</linearGradient>
<radialGradient id="paint5_radial_28_1184" cx="0" cy="0" r="1" gradientUnits="userSpaceOnUse" gradientTransform="translate(6.4223 17.6979) scale(3.65568 3.65568)">
<stop stop-color="#B6F1FF"/>
<stop offset="1" stop-color="#4A8AC2"/>
</radialGradient>
<linearGradient id="paint6_linear_28_1184" x1="6.45368" y1="16.8024" x2="4.90736" y2="20.8301" gradientUnits="userSpaceOnUse">
<stop stop-color="#B6F1FF"/>
<stop offset="1" stop-color="#4A8AC2"/>
</linearGradient>
</defs>
</svg>
