<svg width="38" height="26" viewBox="0 0 38 26" fill="none" xmlns="http://www.w3.org/2000/svg">
<g id="Lozenge">
<path id="Vector" d="M36.9143 5.80007C36.9143 5.80007 36.5502 3.31804 35.4287 2.2282C34.0087 0.793823 32.4211 0.786792 31.6929 0.702417C26.4787 0.336792 18.6501 0.336792 18.6501 0.336792H18.6356C18.6356 0.336792 10.807 0.336792 5.59286 0.702417C4.86462 0.786792 3.27707 0.793823 1.857 2.2282C0.735519 3.31804 0.378683 5.80007 0.378683 5.80007C0.378683 5.80007 0 8.71804 0 11.629V14.3571C0 17.268 0.371401 20.186 0.371401 20.186C0.371401 20.186 0.735519 22.668 1.84972 23.7579C3.26978 25.1923 5.13407 25.143 5.96426 25.2977C8.95003 25.5719 18.6429 25.6563 18.6429 25.6563C18.6429 25.6563 26.4787 25.6423 31.6929 25.2837C32.4211 25.1993 34.0087 25.1923 35.4287 23.7579C36.5502 22.668 36.9143 20.186 36.9143 20.186C36.9143 20.186 37.2857 17.2751 37.2857 14.3571V11.629C37.2857 8.71804 36.9143 5.80007 36.9143 5.80007ZM14.7905 17.6688V7.55085L24.862 12.6274L14.7905 17.6688Z" fill="#7D8732"/>
</g>
</svg>
